<?xml version="1.0" encoding="utf-8"?>
<!-- Uploaded to: SVG Repo, www.svgrepo.com, Generator: SVG Repo Mixer Tools -->
<svg width="800px" height="800px" viewBox="-8.3 0 79.271 79.271" xmlns="http://www.w3.org/2000/svg">
  <g id="map_pointer" data-name="map pointer" transform="translate(-472.205 -48.891)">
    <path id="Path_278" data-name="Path 278" d="M503.542,48.891a31.342,31.342,0,0,0-27.482,46.4c7.817,15.862,27.276,32.763,27.276,32.763l.252.107.258-.107s21.619-18.784,28.428-35.332c.106-.241.2-.484.307-.731.057-.159.109-.317.169-.474a31.283,31.283,0,0,0-29.208-42.627Zm0,42.34a11,11,0,1,1,11-11A11,11,0,0,1,503.542,91.231Z" fill="#a4d322"/>
    <path id="Path_279" data-name="Path 279" d="M503.542,63.23a17,17,0,1,0,17,17A17.008,17.008,0,0,0,503.542,63.23Zm0,28a11,11,0,1,1,11-11A11,11,0,0,1,503.542,91.231Z" fill="#27b7ff"/>
  </g>
</svg>